<svg width="13" height="18" viewBox="0 0 13 18" fill="none" xmlns="http://www.w3.org/2000/svg">
<path d="M3.024 5.384H0.864C0.864 2.336 2.856 0.079999 6.96 0.079999C9.792 0.079999 12.288 1.736 12.288 4.664C12.288 6.416 11.424 7.52 9.744 8.192V8.24C12.096 8.888 12.888 10.4 12.888 12.344C12.888 15.608 10.56 17.336 7.008 17.336C2.784 17.336 0.432 15.128 0.432 11.384H2.592C2.592 13.784 3.696 15.416 6.84 15.416C9.696 15.416 10.728 14.336 10.728 12.344C10.728 9.752 8.832 9.296 7.224 9.296H5.448V7.376H7.128C8.832 7.376 10.128 6.584 10.128 4.664C10.128 3.32 9.216 2 6.96 2C3.72 2 3.024 3.752 3.024 5.384Z" fill="#D5D5D5"/>
</svg>
