<svg width="16" height="12" viewBox="0 0 16 12" fill="none" xmlns="http://www.w3.org/2000/svg">
<path d="M2.6 1.71429H1.4C1.0675 1.71429 0.8 2.00089 0.8 2.35714V5.14286H0.2C0.09 5.14286 0 5.23929 0 5.35714V6.64286C0 6.76071 0.09 6.85714 0.2 6.85714H0.8V9.64286C0.8 9.99911 1.0675 10.2857 1.4 10.2857H2.6C2.9325 10.2857 3.2 9.99911 3.2 9.64286V2.35714C3.2 2.00089 2.9325 1.71429 2.6 1.71429ZM15.8 5.14286H15.2V2.35714C15.2 2.00089 14.9325 1.71429 14.6 1.71429H13.4C13.0675 1.71429 12.8 2.00089 12.8 2.35714V9.64286C12.8 9.99911 13.0675 10.2857 13.4 10.2857H14.6C14.9325 10.2857 15.2 9.99911 15.2 9.64286V6.85714H15.8C15.91 6.85714 16 6.76071 16 6.64286V5.35714C16 5.23929 15.91 5.14286 15.8 5.14286ZM11.4 0H10.2C9.8675 0 9.6 0.286607 9.6 0.642857V5.14286H6.4V0.642857C6.4 0.286607 6.1325 0 5.8 0H4.6C4.2675 0 4 0.286607 4 0.642857V11.3571C4 11.7134 4.2675 12 4.6 12H5.8C6.1325 12 6.4 11.7134 6.4 11.3571V6.85714H9.6V11.3571C9.6 11.7134 9.8675 12 10.2 12H11.4C11.7325 12 12 11.7134 12 11.3571V0.642857C12 0.286607 11.7325 0 11.4 0Z" fill="#242424"/>
</svg>
