<svg width="8" height="20" viewBox="0 0 8 20" fill="none" xmlns="http://www.w3.org/2000/svg">
<path d="M7.08039 0.0601126C7.29039 0.0601126 7.50039 0.0601126 7.92039 0.0601126V3.21011C7.71039 3.21011 7.29039 3.21011 6.87039 3.21011C6.45039 3.21011 6.03039 3.21011 5.82039 3.42011C5.61039 3.63011 5.61038 3.84011 5.61038 4.33011C5.61038 4.75011 5.61038 5.03011 5.61038 5.45011H7.92039V8.11011H5.61038V19.6601H2.0404V8.04011H0.150391V5.38011H2.0404V4.47011C2.0404 2.93011 2.25039 1.81011 2.67039 1.32011C3.30039 0.410112 4.56039 -0.0098877 6.45039 -0.0098877C6.66039 0.0601123 6.87039 0.0601126 7.08039 0.0601126Z" fill="#F4F4F4"/>
</svg>
