<svg width="20" height="20" viewBox="0 0 20 20" fill="none" xmlns="http://www.w3.org/2000/svg">
<path d="M18.5293 5.90673C18.2672 5.59374 17.8004 5.55259 17.4874 5.81359L15.4362 7.53667L14.4929 5.19953C14.4593 5.1118 14.4084 5.03816 14.3499 4.97318C14.1572 4.5443 13.8225 4.17608 13.3611 3.96272C13.1608 3.87175 12.9539 3.82302 12.7471 3.79919C12.7016 3.77536 12.6604 3.74396 12.6084 3.72771L8.99877 2.72159C8.79624 2.66636 8.59264 2.7021 8.42585 2.79957C8.22766 2.86672 8.05763 3.01076 7.9764 3.21978L6.61722 6.71466C6.46993 7.0948 6.65837 7.52367 7.03959 7.67313C7.41865 7.82042 7.84861 7.63089 7.99698 7.24967L9.14497 4.29846L10.789 4.75549C10.7489 4.82047 10.7056 4.88112 10.6731 4.95043L8.56556 9.51858C8.53524 9.58573 8.51899 9.65396 8.49733 9.72327L5.936 14.0174L1.64944 15.4513C1.16425 15.8141 1.06136 16.4975 1.41984 16.9827C1.78048 17.469 2.46603 17.5719 2.95014 17.2134L7.33634 15.7026C7.47063 15.6051 7.56811 15.4773 7.64175 15.3398C7.69698 15.2813 7.7598 15.2347 7.80204 15.1622L9.32909 12.6019L12.0399 14.912L9.13956 18.1805C8.73993 18.6311 8.78 19.3253 9.2327 19.7238C9.68431 20.1256 10.3764 20.0834 10.7782 19.6307L14.3976 15.5531C14.5102 15.4275 14.5774 15.2824 14.6229 15.1308C14.6499 15.0484 14.6499 14.9629 14.6564 14.8773C14.6564 14.834 14.6727 14.795 14.6694 14.7549C14.6597 14.456 14.5384 14.1658 14.2936 13.9589L11.7994 11.8319C11.9792 11.6608 12.1319 11.4572 12.2424 11.2178L13.8582 7.71861L14.3759 9.09729C14.3976 9.21967 14.4387 9.33988 14.5254 9.4406C14.6034 9.53374 14.703 9.59547 14.8091 9.6388C14.82 9.64421 14.833 9.64529 14.846 9.64854C14.9131 9.67237 14.9813 9.69511 15.0517 9.69836C15.1351 9.70594 15.2196 9.69511 15.3051 9.67129C15.3073 9.6702 15.3084 9.6702 15.3084 9.6702C15.3311 9.66479 15.3539 9.66912 15.3766 9.65937C15.4968 9.61389 15.5889 9.53699 15.668 9.4471L18.6116 6.94859C18.9246 6.68542 18.7925 6.21972 18.5293 5.90673Z" fill="#242424"/>
<path d="M14.8063 4.12628C15.9457 4.12628 16.8694 3.20258 16.8694 2.06314C16.8694 0.923699 15.9457 0 14.8063 0C13.6669 0 12.7432 0.923699 12.7432 2.06314C12.7432 3.20258 13.6669 4.12628 14.8063 4.12628Z" fill="#242424"/>
</svg>
