<svg aria-hidden="true" style="position: absolute; width: 0; height: 0; overflow: hidden;" version="1.1" xmlns="http://www.w3.org/2000/svg" xmlns:xlink="http://www.w3.org/1999/xlink">
<defs>
<symbol id="icon-instagram-white" viewBox="0 0 32 32">
<path  d="M28.717 10.756c-0.016-1.074-0.215-2.14-0.596-3.145-0.667-1.716-2.024-3.073-3.743-3.737-0.994-0.373-2.044-0.573-3.108-0.596-1.368-0.061-1.801-0.078-5.273-0.078s-3.917 0-5.274 0.078c-1.062 0.023-2.112 0.223-3.106 0.596-1.719 0.664-3.078 2.021-3.743 3.737-0.374 0.992-0.576 2.041-0.596 3.101-0.061 1.367-0.080 1.8-0.080 5.265s0 3.909 0.080 5.265c0.021 1.062 0.222 2.109 0.596 3.104 0.667 1.714 2.024 3.071 3.744 3.735 0.989 0.386 2.040 0.605 3.106 0.639 1.369 0.061 1.803 0.080 5.274 0.080s3.916 0 5.274-0.080c1.062-0.021 2.113-0.221 3.108-0.595 1.719-0.666 3.076-2.022 3.743-3.737 0.374-0.994 0.574-2.041 0.596-3.104 0.061-1.365 0.080-1.798 0.080-5.265-0.003-3.466-0.003-3.906-0.082-5.264zM15.99 22.531c-3.631 0-6.572-2.936-6.572-6.561s2.941-6.561 6.572-6.561c3.628 0 6.572 2.936 6.572 6.561s-2.944 6.561-6.572 6.561zM22.823 10.696c-0.849 0-1.532-0.684-1.532-1.53s0.684-1.53 1.532-1.53c0.846 0 1.531 0.684 1.531 1.53s-0.685 1.53-1.531 1.53z"></path>
<path  d="M15.992 19.976c2.211 0 4.004-1.793 4.004-4.004s-1.793-4.004-4.004-4.004c-2.211 0-4.004 1.793-4.004 4.004s1.793 4.004 4.004 4.004z"></path>
</symbol>
<symbol id="icon-1" viewBox="0 0 32 32">
<path d="M18.357 0.783h3.162v31.217h-4.066v-23.356c-1.897 1.807-3.704 1.807-6.505 1.807v-2.936c5.466 0 6.957-2.665 7.409-6.731z"></path>
</symbol>
<symbol id="icon-2" viewBox="0 0 32 32">
<path fill="#d5d5d5" style="fill: var(--color2, #d5d5d5)" d="M10.135 11.716h-4.066c0-6.46 3.524-11.565 11.249-11.565 5.331 0 9.939 3.388 9.939 9.352 0 10.707-15.224 11.339-17.167 18.793v0.090h16.715v3.614h-21.64c0-5.647 3.569-10.074 9.306-13.417 5.828-3.388 8.719-4.472 8.719-9.035 0-2.62-1.175-5.783-5.963-5.783-5.466 0-7.093 3.659-7.093 7.951z"></path>
</symbol>
<symbol id="icon-3" viewBox="0 0 32 32">
<path fill="#d5d5d5" style="fill: var(--color2, #d5d5d5)" d="M9.82 9.572h-3.84c0-5.419 3.541-9.429 10.837-9.429 5.035 0 9.472 2.944 9.472 8.149 0 3.115-1.536 5.077-4.523 6.272v0.085c4.181 1.152 5.589 3.84 5.589 7.296 0 5.803-4.139 8.875-10.453 8.875-7.509 0-11.691-3.925-11.691-10.581h3.84c0 4.267 1.963 7.168 7.552 7.168 5.077 0 6.912-1.92 6.912-5.461 0-4.608-3.371-5.419-6.229-5.419h-3.157v-3.413h2.987c3.029 0 5.333-1.408 5.333-4.821 0-2.389-1.621-4.736-5.632-4.736-5.76 0-6.997 3.115-6.997 6.016z"></path>
</symbol>
<symbol id="icon-arrow-top" viewBox="0 0 32 32">
<path fill="#f4f4f4" style="fill: var(--color1, #f4f4f4)" d="M16.746 7.652v17.019h-1.811v-17.019l-8.509 8.509-1.28-1.28 10.695-10.695 10.695 10.695-1.28 1.28-8.509-8.509z"></path>
</symbol>
<symbol id="icon-close" viewBox="0 0 32 32">
<path stroke-linejoin="round" stroke-linecap="round" stroke-miterlimit="4" stroke-width="2.6667" d="M22.667 9.333l-13.333 13.333M9.333 9.333l13.333 13.333"></path>
</symbol>
<symbol id="icon-dumbbell-black" viewBox="0 0 32 32">
<path d="M5.2 7.429h-2.4c-0.665 0-1.2 0.573-1.2 1.286v5.571h-1.2c-0.22 0-0.4 0.193-0.4 0.429v2.571c0 0.236 0.18 0.429 0.4 0.429h1.2v5.571c0 0.712 0.535 1.286 1.2 1.286h2.4c0.665 0 1.2-0.573 1.2-1.286v-14.571c0-0.713-0.535-1.286-1.2-1.286zM31.6 14.286h-1.2v-5.571c0-0.713-0.535-1.286-1.2-1.286h-2.4c-0.665 0-1.2 0.573-1.2 1.286v14.571c0 0.712 0.535 1.286 1.2 1.286h2.4c0.665 0 1.2-0.573 1.2-1.286v-5.571h1.2c0.22 0 0.4-0.193 0.4-0.429v-2.571c0-0.236-0.18-0.429-0.4-0.429zM22.8 4h-2.4c-0.665 0-1.2 0.573-1.2 1.286v9h-6.4v-9c0-0.713-0.535-1.286-1.2-1.286h-2.4c-0.665 0-1.2 0.573-1.2 1.286v21.428c0 0.713 0.535 1.286 1.2 1.286h2.4c0.665 0 1.2-0.573 1.2-1.286v-9h6.4v9c0 0.713 0.535 1.286 1.2 1.286h2.4c0.665 0 1.2-0.573 1.2-1.286v-21.428c0-0.713-0.535-1.286-1.2-1.286z"></path>
</symbol>
<symbol id="icon-dumbbell-white" viewBox="0 0 32 32">
<path  d="M5.2 7.429h-2.4c-0.665 0-1.2 0.573-1.2 1.286v5.571h-1.2c-0.22 0-0.4 0.193-0.4 0.429v2.571c0 0.236 0.18 0.429 0.4 0.429h1.2v5.571c0 0.712 0.535 1.286 1.2 1.286h2.4c0.665 0 1.2-0.573 1.2-1.286v-14.571c0-0.713-0.535-1.286-1.2-1.286zM31.6 14.286h-1.2v-5.571c0-0.713-0.535-1.286-1.2-1.286h-2.4c-0.665 0-1.2 0.573-1.2 1.286v14.571c0 0.712 0.535 1.286 1.2 1.286h2.4c0.665 0 1.2-0.573 1.2-1.286v-5.571h1.2c0.22 0 0.4-0.193 0.4-0.429v-2.571c0-0.236-0.18-0.429-0.4-0.429zM22.8 4h-2.4c-0.665 0-1.2 0.573-1.2 1.286v9h-6.4v-9c0-0.713-0.535-1.286-1.2-1.286h-2.4c-0.665 0-1.2 0.573-1.2 1.286v21.428c0 0.713 0.535 1.286 1.2 1.286h2.4c0.665 0 1.2-0.573 1.2-1.286v-9h6.4v9c0 0.713 0.535 1.286 1.2 1.286h2.4c0.665 0 1.2-0.573 1.2-1.286v-21.428c0-0.713-0.535-1.286-1.2-1.286z"></path>
</symbol>
<symbol id="icon-facebook-black" viewBox="0 0 32 32">
<path d="M20.929 0.096c0.336 0 0.672 0 1.344 0v5.040c-0.336 0-1.008 0-1.68 0s-1.344 0-1.68 0.336c-0.336 0.336-0.336 0.672-0.336 1.456 0 0.672 0 1.12 0 1.792h3.696v4.256h-3.696v18.48h-5.712v-18.592h-3.024v-4.256h3.024v-1.456c0-2.464 0.336-4.256 1.008-5.040 1.008-1.456 3.024-2.128 6.048-2.128 0.336 0.112 0.672 0.112 1.008 0.112z"></path>
</symbol>
<symbol id="icon-facebook-white" viewBox="0 0 32 32">
<path d="M19.52 4.64c0.24 0 0.48 0 0.96 0v3.6c-0.24 0-0.72 0-1.2 0s-0.96 0-1.2 0.24c-0.24 0.24-0.24 0.48-0.24 1.040 0 0.48 0 0.8 0 1.28h2.64v3.040h-2.64v13.2h-4.080v-13.28h-2.16v-3.040h2.16v-1.040c0-1.76 0.24-3.040 0.72-3.6 0.72-1.040 2.16-1.52 4.32-1.52 0.24 0.080 0.48 0.080 0.72 0.080z"></path>
</symbol>
<symbol id="icon-heart-black" viewBox="0 0 32 32">
<path stroke-linejoin="round" stroke-linecap="round" stroke-miterlimit="4" stroke-width="2.4" d="M27.787 6.147c-0.681-0.681-1.49-1.222-2.38-1.591s-1.844-0.559-2.807-0.559c-0.963 0-1.917 0.19-2.807 0.559s-1.699 0.909-2.38 1.591l-1.413 1.413-1.413-1.413c-1.376-1.376-3.241-2.148-5.187-2.148s-3.811 0.773-5.187 2.148c-1.376 1.376-2.148 3.241-2.148 5.187s0.773 3.811 2.148 5.187l11.787 11.787 11.787-11.787c0.681-0.681 1.222-1.49 1.591-2.38s0.559-1.844 0.559-2.807c0-0.963-0.19-1.917-0.559-2.807s-0.909-1.699-1.591-2.38z"></path>
</symbol>
<symbol id="icon-heart-white" viewBox="0 0 32 32">
<path  stroke-linejoin="round" stroke-linecap="round" stroke-miterlimit="4" stroke-width="2.4" d="M27.787 6.147c-0.681-0.681-1.49-1.222-2.38-1.591s-1.844-0.559-2.807-0.559c-0.963 0-1.917 0.19-2.807 0.559s-1.699 0.909-2.38 1.591l-1.413 1.413-1.413-1.413c-1.376-1.376-3.241-2.148-5.187-2.148s-3.811 0.773-5.187 2.148c-1.376 1.376-2.148 3.241-2.148 5.187s0.773 3.811 2.148 5.187l11.787 11.787 11.787-11.787c0.681-0.681 1.222-1.49 1.591-2.38s0.559-1.844 0.559-2.807c0-0.963-0.19-1.917-0.559-2.807s-0.909-1.699-1.591-2.38z"></path>
</symbol>
<symbol id="icon-instagram-black" viewBox="0 0 32 32">
<path d="M28.717 10.756c-0.016-1.074-0.215-2.14-0.596-3.145-0.667-1.716-2.024-3.073-3.743-3.737-0.994-0.373-2.044-0.573-3.108-0.596-1.368-0.061-1.801-0.078-5.273-0.078s-3.917 0-5.274 0.078c-1.062 0.023-2.112 0.223-3.106 0.596-1.719 0.664-3.078 2.021-3.743 3.737-0.374 0.992-0.576 2.041-0.596 3.101-0.061 1.367-0.080 1.8-0.080 5.265s0 3.909 0.080 5.265c0.021 1.062 0.222 2.109 0.596 3.104 0.667 1.714 2.024 3.071 3.744 3.735 0.989 0.386 2.040 0.605 3.106 0.639 1.369 0.061 1.803 0.080 5.274 0.080s3.916 0 5.274-0.080c1.062-0.021 2.113-0.221 3.108-0.595 1.719-0.666 3.076-2.022 3.743-3.737 0.374-0.994 0.574-2.041 0.596-3.104 0.061-1.365 0.080-1.798 0.080-5.265-0.003-3.466-0.003-3.906-0.082-5.264zM15.99 22.531c-3.631 0-6.572-2.936-6.572-6.561s2.941-6.561 6.572-6.561c3.628 0 6.572 2.936 6.572 6.561s-2.944 6.561-6.572 6.561zM22.823 10.696c-0.849 0-1.532-0.684-1.532-1.53s0.684-1.53 1.532-1.53c0.846 0 1.531 0.684 1.531 1.53s-0.685 1.53-1.531 1.53z"></path>
<path d="M15.992 19.976c2.211 0 4.004-1.793 4.004-4.004s-1.793-4.004-4.004-4.004c-2.211 0-4.004 1.793-4.004 4.004s1.793 4.004 4.004 4.004z"></path>
</symbol>
<symbol id="icon-running-man-black" viewBox="0 0 32 32">
<path d="M29.647 9.451c-0.419-0.501-1.166-0.567-1.667-0.149l-3.282 2.757-1.509-3.739c-0.054-0.14-0.135-0.258-0.229-0.362-0.308-0.686-0.844-1.275-1.582-1.617-0.32-0.146-0.652-0.224-0.982-0.262-0.073-0.038-0.139-0.088-0.222-0.114l-5.775-1.61c-0.324-0.088-0.65-0.031-0.917 0.125-0.317 0.107-0.589 0.338-0.719 0.672l-2.175 5.592c-0.236 0.608 0.066 1.294 0.676 1.534 0.607 0.236 1.294-0.068 1.532-0.678l1.837-4.722 2.63 0.731c-0.064 0.104-0.133 0.201-0.185 0.312l-3.372 7.309c-0.049 0.107-0.075 0.217-0.109 0.328l-4.098 6.871-6.859 2.294c-0.776 0.58-0.941 1.674-0.367 2.45 0.577 0.778 1.674 0.943 2.448 0.369l7.018-2.417c0.215-0.156 0.371-0.36 0.489-0.58 0.088-0.094 0.189-0.168 0.256-0.284l2.443-4.096 4.337 3.696-4.641 5.23c-0.639 0.721-0.575 1.832 0.149 2.469 0.723 0.643 1.83 0.575 2.473-0.149l5.791-6.524c0.18-0.201 0.288-0.433 0.36-0.676 0.043-0.132 0.043-0.269 0.054-0.406 0-0.069 0.026-0.132 0.021-0.196-0.016-0.478-0.21-0.943-0.601-1.274l-3.991-3.403c0.288-0.274 0.532-0.6 0.709-0.983l2.585-5.599 0.828 2.206c0.035 0.196 0.1 0.388 0.239 0.549 0.125 0.149 0.284 0.248 0.454 0.317 0.017 0.009 0.038 0.010 0.059 0.016 0.107 0.038 0.216 0.075 0.329 0.080 0.133 0.012 0.269-0.005 0.405-0.043 0.004-0.002 0.005-0.002 0.005-0.002 0.036-0.009 0.073-0.002 0.109-0.017 0.192-0.073 0.34-0.196 0.466-0.34l4.71-3.998c0.501-0.421 0.289-1.166-0.132-1.667z"></path>
<path d="M23.69 6.602c1.823 0 3.301-1.478 3.301-3.301s-1.478-3.301-3.301-3.301c-1.823 0-3.301 1.478-3.301 3.301s1.478 3.301 3.301 3.301z"></path>
</symbol>
<symbol id="icon-running-man-white" viewBox="0 0 32 32">
<path  d="M29.967 9.451c-0.429-0.501-1.193-0.567-1.706-0.149l-3.359 2.757-1.545-3.739c-0.055-0.14-0.138-0.258-0.234-0.362-0.316-0.686-0.864-1.275-1.619-1.617-0.328-0.146-0.667-0.224-1.005-0.262-0.075-0.038-0.142-0.088-0.227-0.114l-5.911-1.61c-0.332-0.088-0.665-0.031-0.938 0.125-0.325 0.107-0.603 0.338-0.736 0.672l-2.226 5.592c-0.241 0.608 0.067 1.294 0.692 1.534 0.621 0.236 1.325-0.068 1.568-0.678l1.88-4.722 2.692 0.731c-0.066 0.104-0.137 0.201-0.19 0.312l-3.451 7.309c-0.050 0.107-0.076 0.217-0.112 0.328l-4.194 6.871-7.019 2.294c-0.794 0.58-0.963 1.674-0.376 2.45 0.591 0.778 1.713 0.943 2.506 0.369l7.182-2.417c0.22-0.156 0.38-0.36 0.5-0.581 0.090-0.093 0.193-0.168 0.262-0.284l2.501-4.096 4.439 3.696-4.749 5.23c-0.654 0.721-0.589 1.832 0.152 2.469 0.74 0.643 1.873 0.575 2.531-0.149l5.927-6.524c0.184-0.201 0.294-0.433 0.369-0.676 0.044-0.132 0.044-0.268 0.055-0.405 0-0.069 0.027-0.132 0.021-0.196-0.016-0.478-0.215-0.943-0.615-1.274l-4.084-3.403c0.294-0.274 0.544-0.6 0.725-0.983l2.646-5.599 0.848 2.206c0.036 0.196 0.103 0.388 0.245 0.549 0.128 0.149 0.291 0.248 0.465 0.317 0.018 0.009 0.039 0.010 0.060 0.016 0.11 0.038 0.222 0.075 0.337 0.080 0.136 0.012 0.275-0.005 0.415-0.043 0.004-0.002 0.005-0.002 0.005-0.002 0.037-0.009 0.075-0.002 0.112-0.017 0.197-0.073 0.348-0.196 0.477-0.34l4.82-3.998c0.512-0.421 0.296-1.166-0.135-1.667z"></path>
<path  d="M23.871 6.602c1.866 0 3.378-1.478 3.378-3.301s-1.512-3.301-3.378-3.301c-1.866 0-3.378 1.478-3.378 3.301s1.513 3.301 3.378 3.301z"></path>
</symbol>
<symbol id="icon-search" viewBox="0 0 32 32">
<path stroke-linejoin="round" stroke-linecap="round" stroke-miterlimit="4" stroke-width="2.6667" d="M14.667 25.333c5.891 0 10.667-4.776 10.667-10.667s-4.776-10.667-10.667-10.667c-5.891 0-10.667 4.776-10.667 10.667s4.776 10.667 10.667 10.667z"></path>
<path stroke-linejoin="round" stroke-linecap="round" stroke-miterlimit="4" stroke-width="2.6667" d="M28 28l-5.8-5.8"></path>
</symbol>
<symbol id="icon-star-the_note-h1" viewBox="0 0 32 32">
<path stroke-linejoin="miter" stroke-linecap="butt" stroke-miterlimit="4" stroke-width="2.1333" d="M15.168 13.852l0.832-0.156 0.832 0.156 0.72 0.446 0.51 0.676 0.232 0.814-0.078 0.843-0.377 0.758-0.626 0.57-0.789 0.306h-0.847l-0.789-0.306-0.626-0.57-0.377-0.758-0.078-0.843 0.232-0.814 0.51-0.676 0.72-0.446z"></path>
</symbol>
<symbol id="icon-star-transparent" viewBox="0 0 32 32">
<path  opacity="0.2" d="M13.826 3.262c0.684-2.106 3.663-2.106 4.348 0l1.932 5.945c0.306 0.942 1.184 1.579 2.174 1.579h6.251c2.214 0 3.135 2.833 1.344 4.135l-5.057 3.674c-0.801 0.582-1.136 1.614-0.83 2.556l1.931 5.945c0.684 2.106-1.726 3.857-3.517 2.555l-5.057-3.674c-0.801-0.582-1.886-0.582-2.687 0l-5.057 3.674c-1.791 1.302-4.202-0.45-3.517-2.555l1.932-5.945c0.306-0.942-0.029-1.973-0.83-2.556l-5.057-3.674c-1.791-1.302-0.871-4.135 1.344-4.135h6.251c0.99 0 1.868-0.638 2.174-1.579l1.932-5.945z"></path>
</symbol>
<symbol id="icon-star-yellow" viewBox="0 0 32 32">
<path  d="M13.826 3.262c0.684-2.106 3.663-2.106 4.348 0l1.932 5.945c0.306 0.942 1.184 1.579 2.174 1.579h6.251c2.214 0 3.135 2.833 1.344 4.135l-5.057 3.674c-0.801 0.582-1.136 1.614-0.83 2.556l1.931 5.945c0.684 2.106-1.726 3.857-3.517 2.555l-5.057-3.674c-0.801-0.582-1.886-0.582-2.687 0l-5.057 3.674c-1.791 1.302-4.202-0.45-3.517-2.555l1.932-5.945c0.306-0.942-0.029-1.973-0.83-2.556l-5.057-3.674c-1.791-1.302-0.871-4.135 1.344-4.135h6.251c0.99 0 1.868-0.638 2.174-1.579l1.932-5.945z"></path>
</symbol>
<symbol id="icon-trash_bin-black" viewBox="0 0 32 32">
<path stroke-linejoin="round" stroke-linecap="round" stroke-miterlimit="4" stroke-width="2.4" d="M21.333 8v-1.067c0-1.493 0-2.24-0.291-2.811-0.256-0.502-0.664-0.91-1.165-1.165-0.57-0.291-1.317-0.291-2.811-0.291h-2.133c-1.493 0-2.24 0-2.811 0.291-0.502 0.256-0.91 0.664-1.165 1.165-0.291 0.57-0.291 1.317-0.291 2.811v1.067M13.333 15.333v6.667M18.667 15.333v6.667M4 8h24M25.333 8v14.933c0 2.24 0 3.36-0.436 4.216-0.383 0.753-0.995 1.364-1.748 1.748-0.856 0.436-1.976 0.436-4.216 0.436h-5.867c-2.24 0-3.36 0-4.216-0.436-0.753-0.384-1.365-0.995-1.748-1.748-0.436-0.856-0.436-1.976-0.436-4.216v-14.933"></path>
</symbol>
<symbol id="icon-trash_bin-white" viewBox="0 0 32 32">
<path  stroke-linejoin="round" stroke-linecap="round" stroke-miterlimit="4" stroke-width="2.4" d="M21.333 8v-1.067c0-1.493 0-2.24-0.291-2.811-0.256-0.502-0.664-0.91-1.165-1.165-0.57-0.291-1.317-0.291-2.811-0.291h-2.133c-1.493 0-2.24 0-2.811 0.291-0.502 0.256-0.91 0.664-1.165 1.165-0.291 0.57-0.291 1.317-0.291 2.811v1.067M13.333 15.333v6.667M18.667 15.333v6.667M4 8h24M25.333 8v14.933c0 2.24 0 3.36-0.436 4.216-0.383 0.753-0.995 1.364-1.748 1.748-0.856 0.436-1.976 0.436-4.216 0.436h-5.867c-2.24 0-3.36 0-4.216-0.436-0.753-0.384-1.365-0.995-1.748-1.748-0.436-0.856-0.436-1.976-0.436-4.216v-14.933"></path>
</symbol>
<symbol id="icon-facebook-black" viewBox="0 0 32 32">
<path d="M19.52 4.64h0.96v3.6h-1.2c-0.48 0-0.96 0-1.2 0.24s-0.24 0.48-0.24 1.040v1.28h2.64v3.040h-2.64v13.2h-4.080v-13.28h-2.16v-3.040h2.16v-1.040c0-1.76 0.24-3.040 0.72-3.6 0.72-1.040 2.16-1.52 4.32-1.52 0.24 0.080 0.48 0.080 0.72 0.080z"></path>
</symbol>
<symbol id="icon-youtube-white" viewBox="0 0 32 32">
<path d="M24.874 5.231c-1.465-0.086-4.48-0.172-9.046-0.172h-0.603c-4.394 0-7.323 0.086-8.788 0.258-1.982 0.172-3.36 0.689-4.135 1.378-0.689 0.603-1.206 1.723-1.378 3.188-0.086 0.948-0.172 2.929-0.172 5.945v0.431c0 2.843 0.086 4.825 0.258 5.772 0.258 1.378 0.689 2.412 1.551 3.015 0.862 0.689 2.326 1.12 4.394 1.292 1.465 0.086 4.48 0.172 9.046 0.172h0.603c4.394 0 7.323-0.086 8.788-0.258 1.982-0.172 3.36-0.689 4.135-1.378 0.689-0.603 1.206-1.723 1.378-3.188 0.086-0.948 0.172-2.929 0.172-5.945v-0.431c0-2.843-0.086-4.825-0.258-5.772-0.258-1.378-0.689-2.412-1.551-3.015-0.862-0.689-2.326-1.12-4.394-1.292zM21.514 15.828l-9.477 5.686v-11.372l9.477 5.686z"></path>
</symbol>
<symbol id="icon-align-justify-1" viewBox="0 0 32 32">
<path stroke-linejoin="round" stroke-linecap="round" stroke-miterlimit="4" stroke-width="2" d="M28 13.333h-24M28 8h-24M28 18.667h-24M28 24h-24"></path>
</symbol>
<symbol id="icon-your-energy" viewBox="0 0 302 32">
<path d="M11.383 18.926l-11.383-18.926h6.811l7.634 13.12h0.091l7.634-13.12h6.811l-11.383 18.926v13.074h-6.217v-13.074z"></path>
<path d="M28.961 26.743v-21.486l5.257-5.257h16.457l5.257 5.257v21.486l-5.257 5.257h-16.457l-5.257-5.257zM47.384 26.697l2.331-2.331v-16.731l-2.331-2.331h-9.874l-2.331 2.331v16.731l2.331 2.331h9.874z"></path>
<path d="M60.284 26.514v-26.514h6.217v24.366l2.331 2.331h8.96l2.331-2.331v-24.366h6.217v26.514l-5.486 5.486h-15.086l-5.486-5.486z"></path>
<path d="M116.293 21.394v10.606h-6.217v-9.189l-2.743-3.063h-9.966v12.251h-6.217v-32h20.069l4.891 4.937v9.691l-3.109 3.154 3.291 3.611zM97.367 14.629h11.017l1.6-1.6v-6.217l-1.6-1.6h-11.017v9.417z"></path>
<path d="M132.168 0h23.131v5.257h-16.914v8.091h15.589v5.166h-15.589v8.229h16.914v5.257h-23.131v-32z"></path>
<path d="M158.748 0h5.577l14.263 21.714h0.091v-21.714h5.989v32h-5.577l-14.263-21.669h-0.091v21.669h-5.989v-32z"></path>
<path d="M189.48 0h23.131v5.257h-16.914v8.091h15.589v5.166h-15.589v8.229h16.914v5.257h-23.131v-32z"></path>
<path d="M241.205 21.394v10.606h-6.217v-9.189l-2.743-3.063h-9.967v12.251h-6.217v-32h20.070l4.891 4.937v9.691l-3.109 3.154 3.291 3.611zM222.278 14.629h11.018l1.6-1.6v-6.217l-1.6-1.6h-11.018v9.417z"></path>
<path d="M245.31 26.743v-21.486l5.257-5.257h15.909l5.166 5.166v4.891h-6.217v-2.606l-2.149-2.149h-9.417l-2.331 2.331v16.731l2.331 2.331h9.509l2.24-2.24v-4.983h-6.857v-5.303h12.891v12.571l-5.257 5.257h-15.817l-5.257-5.257z"></path>
<path d="M283.035 18.926l-11.383-18.926h6.811l7.634 13.12h0.091l7.634-13.12h6.811l-11.383 18.926v13.074h-6.217v-13.074z"></path>
</symbol>
<symbol id="icon-inverted-commas" viewBox="0 0 32 32">
<path fill="#f4f4f4" style="fill: var(--color1, #f4f4f4)" d="M8.2 17.469c1.546-0.612 2.785-0.452 3.719 0.481s1.21 2.421 0.831 4.462c-0.292 1.517-0.933 2.683-1.925 3.5-0.963 0.788-2.085 1.181-3.369 1.181-1.75 0-2.96-0.671-3.631-2.012-0.671-1.371-0.802-3.208-0.394-5.512 0.233-1.254 0.613-2.523 1.137-3.806s1.225-2.596 2.1-3.937c0.875-1.342 2.012-2.508 3.412-3.5s2.946-1.633 4.638-1.925l-0.438 4.638c-1.429 0.292-2.698 1.035-3.806 2.231-1.108 1.167-1.867 2.567-2.275 4.2zM21.369 17.469c1.546-0.612 2.785-0.452 3.719 0.481s1.21 2.421 0.831 4.462c-0.292 1.517-0.933 2.683-1.925 3.5-0.962 0.788-2.085 1.181-3.369 1.181-1.75 0-2.96-0.671-3.631-2.012-0.671-1.371-0.802-3.208-0.394-5.512 0.233-1.254 0.612-2.523 1.138-3.806s1.225-2.596 2.1-3.937c0.875-1.342 2.012-2.508 3.412-3.5s2.946-1.633 4.637-1.925l-0.437 4.638c-1.429 0.292-2.698 1.035-3.806 2.231-1.108 1.167-1.867 2.567-2.275 4.2z"></path>
</symbol>
<symbol id="icon-icon" viewBox="0 0 34 32">
<path fill="#f4f4f4" style="fill: var(--color1, #f4f4f4)" opacity="0.2" d="M32 16c0 8.837-7.163 16-16 16s-16-7.163-16-16c0-8.837 7.163-16 16-16s16 7.163 16 16z"></path>
<path fill="#f4f4f4" style="fill: var(--color1, #f4f4f4)" d="M24.729 11.907c-0.268-0.313-0.746-0.354-1.066-0.093l-2.099 1.723-0.965-2.337c-0.034-0.088-0.086-0.161-0.146-0.226-0.197-0.429-0.54-0.797-1.012-1.010-0.205-0.091-0.417-0.14-0.628-0.164-0.047-0.024-0.089-0.055-0.142-0.071l-3.694-1.006c-0.207-0.055-0.416-0.020-0.586 0.078-0.203 0.067-0.377 0.211-0.46 0.42l-1.391 3.495c-0.151 0.38 0.042 0.809 0.432 0.959 0.388 0.147 0.828-0.042 0.98-0.424l1.175-2.951 1.683 0.457c-0.041 0.065-0.085 0.126-0.119 0.195l-2.157 4.568c-0.031 0.067-0.048 0.135-0.070 0.205l-2.621 4.294-4.387 1.434c-0.497 0.363-0.602 1.046-0.235 1.531 0.369 0.486 1.071 0.589 1.566 0.231l4.489-1.511c0.137-0.098 0.237-0.225 0.313-0.363 0.056-0.058 0.121-0.105 0.164-0.178l1.563-2.56 2.774 2.31-2.968 3.268c-0.409 0.451-0.368 1.145 0.095 1.543 0.462 0.402 1.17 0.36 1.582-0.093l3.704-4.078c0.115-0.126 0.184-0.271 0.23-0.422 0.028-0.082 0.028-0.168 0.034-0.253 0-0.043 0.017-0.082 0.013-0.122-0.010-0.299-0.134-0.589-0.385-0.796l-2.553-2.127c0.184-0.171 0.34-0.375 0.453-0.614l1.654-3.499 0.53 1.379c0.022 0.122 0.064 0.243 0.153 0.343 0.080 0.093 0.182 0.155 0.29 0.198 0.011 0.005 0.024 0.007 0.038 0.010 0.069 0.024 0.139 0.047 0.211 0.050 0.085 0.008 0.172-0.003 0.259-0.027 0.002-0.001 0.003-0.001 0.003-0.001 0.023-0.005 0.047-0.001 0.070-0.011 0.123-0.046 0.217-0.122 0.298-0.212l3.013-2.499c0.32-0.263 0.185-0.729-0.084-1.042z"></path>
<path fill="#f4f4f4" style="fill: var(--color1, #f4f4f4)" d="M20.919 10.126c1.166 0 2.111-0.924 2.111-2.063s-0.945-2.063-2.111-2.063c-1.166 0-2.111 0.924-2.111 2.063s0.945 2.063 2.111 2.063z"></path>
</symbol>

<symbol id="icon-Badge-1" viewBox="0 0 100 32">
<path d="M10.16 9.893h1.952l1.952 8.864h0.032l2.304-8.864h1.952l2.32 8.864h0.032l1.952-8.864h1.952l-2.864 11.44h-2l-2.352-8.96h-0.032l-2.336 8.96h-2.016l-2.848-11.44zM30.427 21.573c-3.457 0-5.617-2.528-5.617-5.968s2.16-5.952 5.616-5.952c3.44 0 5.616 2.512 5.616 5.952s-2.176 5.968-5.616 5.968zM30.427 19.941c2.623 0 3.711-2.016 3.711-4.336 0-2.304-1.088-4.32-3.712-4.32s-3.728 2.016-3.728 4.32c0 2.32 1.104 4.336 3.728 4.336zM37.553 21.333v-11.44h4.88c2.352 0 3.872 1.2 3.872 3.28 0 1.6-0.816 2.528-2.128 2.848v0.032c2.64 0.496 1.68 4.976 2.288 5.168v0.112h-2c-0.528-0.48 0.544-4.416-2.208-4.416h-2.8v4.416h-1.904zM39.457 11.509v3.776h2.576c1.168 0 2.384-0.224 2.384-1.888 0-1.648-1.216-1.888-2.384-1.888h-2.576zM47.867 9.893h1.904v5.648l5.184-5.648h2.272l-4.448 4.848 4.72 6.592h-2.224l-3.744-5.264-1.76 1.888v3.376h-1.904v-11.44zM62.707 21.573c-3.456 0-5.616-2.528-5.616-5.968s2.16-5.952 5.616-5.952c3.44 0 5.616 2.512 5.616 5.952s-2.176 5.968-5.616 5.968zM62.707 19.941c2.624 0 3.712-2.016 3.712-4.336 0-2.304-1.088-4.32-3.712-4.32s-3.728 2.016-3.728 4.32c0 2.32 1.104 4.336 3.728 4.336zM78.7 17.429c0 2.496-1.328 4.144-4.512 4.144-3.185 0-4.512-1.648-4.512-4.144v-7.536h1.904v7.536c0 1.728 0.864 2.512 2.608 2.512 1.76 0 2.624-0.784 2.624-2.512v-7.536h1.888v7.536zM83.515 21.333v-9.824h-3.664v-1.616h9.216v1.616h-3.648v9.824h-1.904z"></path>
<path stroke-linejoin="miter" stroke-linecap="butt" stroke-miterlimit="4" stroke-width="1.3333" d="M16 0.667h68c8.468 0 15.333 6.865 15.333 15.333s-6.865 15.333-15.333 15.333h-68c-8.468 0-15.333-6.865-15.333-15.333s6.865-15.333 15.333-15.333z"></path>
</symbol>
<symbol id="icon-search-1" viewBox="0 0 32 32">
<path stroke-linejoin="round" stroke-linecap="round" stroke-miterlimit="4" stroke-width="2.6667" d="M14.667 25.333c5.891 0 10.667-4.776 10.667-10.667s-4.776-10.667-10.667-10.667v0c-5.891 0-10.667 4.776-10.667 10.667s4.776 10.667 10.667 10.667v0zM28 28l-5.801-5.799"></path>
</symbol>


<symbol id="icon-logo" viewBox="0 0 176 32">
<path d="M6.64 17.707l-6.64-11.040h3.973l4.453 7.653h0.053l4.453-7.653h3.973l-6.64 11.039v7.627h-3.627v-7.627zM16.894 22.267v-12.533l3.067-3.067h9.6l3.067 3.067v12.533l-3.067 3.067h-9.6l-3.067-3.067zM27.641 22.24l1.359-1.36v-9.76l-1.36-1.36h-5.76l-1.36 1.36v9.76l1.36 1.36h5.76zM35.166 22.133v-15.467h3.627v14.213l1.36 1.36h5.227l1.36-1.36v-14.213h3.627v15.467l-3.2 3.2h-8.8l-3.2-3.2zM67.838 19.147v6.187h-3.627v-5.36l-1.6-1.787h-5.813v7.147h-3.627v-18.667h11.706l2.854 2.88v5.653l-1.813 1.84 1.92 2.107zM56.797 15.2h6.427l0.933-0.933v-3.627l-0.933-0.933h-6.427v5.493zM77.098 6.667h13.493v3.067h-9.867v4.72h9.093v3.013h-9.093v4.8h9.867v3.067h-13.493v-18.667zM92.603 6.667h3.253l8.32 12.667h0.053v-12.667h3.493v18.667h-3.253l-8.32-12.64h-0.053v12.64h-3.494v-18.667zM110.53 6.667h13.493v3.067h-9.867v4.72h9.093v3.013h-9.093v4.8h9.867v3.067h-13.494v-18.667zM140.702 19.147v6.187h-3.627v-5.36l-1.6-1.787h-5.813v7.147h-3.627v-18.667h11.707l2.853 2.88v5.653l-1.813 1.84 1.92 2.107zM129.662 15.2h6.428l0.933-0.933v-3.627l-0.933-0.933h-6.427v5.493zM143.097 22.267v-12.533l3.067-3.067h9.28l3.013 3.013v2.853h-3.627v-1.52l-1.253-1.253h-5.494l-1.36 1.36v9.76l1.36 1.36h5.547l1.306-1.307v-2.907h-4v-3.093h7.52v7.333l-3.067 3.067h-9.227l-3.067-3.067zM165.104 17.707l-6.64-11.040h3.973l4.453 7.653h0.053l4.454-7.653h3.973l-6.64 11.039v7.627h-3.627v-7.627z"></path>
</symbol>

<symbol id="icon-align-justify" viewBox="0 0 32 32">
<path d="M3 8c0 0.6 5 1 13 1s13-0.4 13-1c0-0.6-5-1-13-1s-13 0.4-13 1z"></path>
<path d="M3.5 13c-0.4 0.6 4 1 12.5 1s12.9-0.4 12.5-1c-0.4-0.6-5.7-1-12.5-1s-12.1 0.4-12.5 1z"></path>
<path d="M3.5 19c0.8 1.3 24.2 1.3 25 0 0.4-0.6-4-1-12.5-1s-12.9 0.4-12.5 1z"></path>
<path d="M3 24c0 0.6 5 1 13 1s13-0.4 13-1c0-0.6-5-1-13-1s-13 0.4-13 1z"></path>
</symbol>

<symbol id="icon-close-modal" viewBox="0 0 32 32">
<path fill="none" stroke="#f4f4f4" style="stroke: var(--color1, #f4f4f4)" stroke-linejoin="round" stroke-linecap="round" stroke-miterlimit="4" stroke-width="2.2857" d="M22.666 9.334l-13.333 13.333M9.334 9.334l13.333 13.333"/>
</symbol>
<symbol id="icon-trash-modal" viewBox="0 0 32 32">
<path stroke-linejoin="round" stroke-linecap="round" stroke-miterlimit="4" stroke-width="2.4" d="M21.333 8v-1.067c0-1.493 0-2.24-0.29-2.81-0.261-0.505-0.662-0.906-1.152-1.159l-0.015-0.007c-0.57-0.29-1.317-0.29-2.81-0.29h-2.134c-1.493 0-2.24 0-2.81 0.29-0.502 0.256-0.91 0.664-1.166 1.166-0.29 0.57-0.29 1.317-0.29 2.81v1.067M13.333 15.333v6.667M18.667 15.333v6.667M4 8h24M25.333 8v14.933c0 2.24 0 3.36-0.435 4.216-0.391 0.756-0.992 1.358-1.727 1.738l-0.022 0.011c-0.854 0.435-1.976 0.435-4.216 0.435h-5.866c-2.24 0-3.36 0-4.216-0.435-0.756-0.391-1.358-0.992-1.738-1.727l-0.011-0.022c-0.435-0.856-0.435-1.976-0.435-4.216v-14.933"/>
</symbol>

<symbol id="icon-x" viewBox="0 0 32 32">
<path stroke-linejoin="round" stroke-linecap="round" stroke-miterlimit="4" stroke-width="3.4286" d="M24 8l-16 16"></path>
<path stroke-linejoin="round" stroke-linecap="round" stroke-miterlimit="4" stroke-width="3.4286" d="M8 8l16 16"></path>
</symbol>
<symbol id="icon-youtube-black" viewBox="0 0 32 32">
<path d="M24.874 5.231c-1.465-0.086-4.48-0.172-9.046-0.172h-0.603c-4.394 0-7.323 0.086-8.788 0.258-1.982 0.172-3.36 0.689-4.135 1.378-0.689 0.603-1.206 1.723-1.378 3.188-0.086 0.948-0.172 2.929-0.172 5.945v0.431c0 2.843 0.086 4.825 0.258 5.772 0.258 1.378 0.689 2.412 1.551 3.015 0.862 0.689 2.326 1.12 4.394 1.292 1.465 0.086 4.48 0.172 9.046 0.172h0.603c4.394 0 7.323-0.086 8.788-0.258 1.982-0.172 3.36-0.689 4.135-1.378 0.689-0.603 1.206-1.723 1.378-3.188 0.086-0.948 0.172-2.929 0.172-5.945v-0.431c0-2.843-0.086-4.825-0.258-5.772-0.258-1.378-0.689-2.412-1.551-3.015-0.862-0.689-2.326-1.12-4.394-1.292zM21.514 15.828l-9.477 5.686v-11.372l9.477 5.686z"></path>
</symbol>
<symbol id="icon-arrow" viewBox="0 0 32 32">
<path stroke-linejoin="round" stroke-linecap="round" stroke-miterlimit="4" stroke-width="2.6" d="M15 28l13-13M28 15l-13-13M28 15h-26"></path>
</symbol>
<symbol id="icon-icon-run" viewBox="0 0 32 32">
      <path fill="#242424" d="M32 16c0 8.837-7.163 16-16 16S0 24.837 0 16 7.163 0 16 0s16 7.163 16 16z" style="fill:var(--color1, #242424)"/>
      <path fill="#f4f4f4" d="M25.098 11.634a.79.79 0 0 0-1.111-.099l-2.188 1.838-1.006-2.493a.757.757 0 0 0-.153-.241 2.148 2.148 0 0 0-1.055-1.078 2.158 2.158 0 0 0-.655-.174c-.049-.025-.093-.059-.148-.076l-3.85-1.073a.792.792 0 0 0-.611.083.77.77 0 0 0-.479.448l-1.45 3.728a.791.791 0 0 0 .451 1.022.79.79 0 0 0 1.021-.452l1.225-3.148 1.754.488c-.043.069-.089.134-.124.208l-2.248 4.873c-.032.072-.05.144-.073.218l-2.732 4.58-4.572 1.529a1.168 1.168 0 0 0 1.387 1.879l4.679-1.612c.143-.104.247-.24.326-.387.059-.062.126-.112.171-.189l1.629-2.731 2.891 2.464-3.094 3.487a1.167 1.167 0 0 0 1.747 1.547l3.861-4.349c.12-.134.192-.289.24-.451.029-.088.029-.179.036-.27 0-.046.017-.088.014-.131a1.143 1.143 0 0 0-.401-.849l-2.661-2.269c.192-.183.355-.4.473-.655l1.724-3.733.552 1.471a.742.742 0 0 0 .159.366.754.754 0 0 0 .303.211c.012.006.025.007.039.01a.738.738 0 0 0 .489.024l.003-.001c.024-.006.049-.001.073-.012a.79.79 0 0 0 .311-.226l3.14-2.665c.334-.281.193-.777-.088-1.111zM21.126 9.735a2.201 2.201 0 1 0 0-4.402 2.201 2.201 0 0 0 0 4.402z" style="fill:var(--color2, #f4f4f4)"/>
    </symbol>
    <symbol id="icon-search-converted" viewBox="0 0 32 32">
<path d="M13.76 2.699c-1.274 0.121-2.447 0.403-3.548 0.829l0.091-0.031c-4.043 1.602-6.85 5.14-7.511 9.463-0.128 0.844-0.128 2.569 0 3.413 0.812 5.312 4.86 9.36 10.169 10.169 0.844 0.128 2.569 0.128 3.413 0 1.984-0.302 3.952-1.116 5.461-2.261l0.313-0.238 2.567 2.564c1.936 1.932 2.624 2.588 2.805 2.67 0.484 0.219 0.972 0.101 1.415-0.341s0.56-0.932 0.341-1.415c-0.082-0.181-0.738-0.869-2.67-2.805l-2.564-2.567 0.238-0.313c0.878-1.173 1.559-2.551 1.961-4.044l0.019-0.084c0.293-1.127 0.375-1.785 0.375-3.040s-0.082-1.913-0.375-3.040c-1.242-4.617-5.052-8.088-9.767-8.816l-0.067-0.009c-0.549-0.084-2.192-0.146-2.667-0.103zM16.187 5.46c3.677 0.629 6.587 3.336 7.502 6.849l0.014 0.065c0.224 0.896 0.268 1.269 0.268 2.293s-0.044 1.397-0.268 2.293c-0.864 3.318-3.425 5.879-6.678 6.729l-0.065 0.014c-0.896 0.224-1.269 0.268-2.293 0.268-1.639 0-2.887-0.302-4.32-1.044-0.873-0.453-1.619-1.013-2.261-1.676l-0.002-0.002c-1.442-1.44-2.277-3.081-2.651-5.196-0.092-0.526-0.092-2.247 0-2.773 0.27-1.532 0.821-2.885 1.65-4.050 0.459-0.647 1.5-1.689 2.148-2.148 0.897-0.639 1.946-1.139 3.076-1.439l0.067-0.015c0.441-0.11 0.72-0.16 1.467-0.265 0.329-0.044 1.936 0.020 2.347 0.096z"></path>
</symbol>

</defs>
</svg>
